<?xml version="1.0" encoding="utf-8"?>
<!-- Generator: Adobe Illustrator 24.2.3, SVG Export Plug-In . SVG Version: 6.00 Build 0)  -->
<svg version="1.1" id="Layer_1" xmlns="http://www.w3.org/2000/svg" xmlns:xlink="http://www.w3.org/1999/xlink" x="0px" y="0px"
	 viewBox="0 0 34 34.2" style="enable-background:new 0 0 34 34.2;" xml:space="preserve">
<style type="text/css">
	.st0{fill:#FFFFFF;}
</style>
<g>
	<path class="st0" d="M19.5,16h-16c-1.1,0-2,0.9-2,2v10c0,1.1,0.9,2,2,2L4,30c0.3,0,0.5,0.2,0.5,0.5v2.1c0,0.4,0.5,0.7,0.9,0.4
		l4.1-2.8C9.5,30,9.6,30,9.7,30h9.8c1.1,0,2-0.9,2-2V18C21.5,16.9,20.6,16,19.5,16z M5.5,24.9c-1.1,0-2-0.9-2-2c0-1.1,0.9-2,2-2
		c1.1,0,2,0.9,2,2C7.5,24,6.6,24.9,5.5,24.9z M11.5,24.9c-1.1,0-2-0.9-2-2c0-1.1,0.9-2,2-2c1.1,0,2,0.9,2,2
		C13.5,24,12.6,24.9,11.5,24.9z M17.5,24.9c-1.1,0-2-0.9-2-2c0-1.1,0.9-2,2-2c1.1,0,2,0.9,2,2C19.5,24,18.6,24.9,17.5,24.9z"/>
	<path class="st0" d="M21.1,13.9c-1.8-1.2-2.8-3.3-2.6-5.6c0.2-2.6,2.2-4.8,4.7-5.2c1.7-0.3,3.5,0.2,4.8,1.3c0.4,0.4,1,0.3,1.4-0.1
		c0.4-0.4,0.3-1-0.1-1.4c-1.8-1.5-4.1-2.2-6.5-1.8c-3.3,0.6-6,3.6-6.3,7c-0.2,2.2,0.5,4.3,1.8,5.9h1.3c1.2,0,2.3,0.6,3.1,1.5
		C22.2,14.8,21.7,14.3,21.1,13.9z"/>
	<path class="st0" d="M31.5,18.4c-0.5,0-1,0.4-1,1c0,2.2-1.8,3.9-4.1,3.5c-1.4-0.2-2.6-1.5-2.8-3v3.8c0.7,0.6,1.5,1,2.5,1.1
		c3.4,0.6,6.5-2,6.5-5.5C32.5,18.8,32,18.4,31.5,18.4z"/>
	<path class="st0" d="M24.7,7.9c0.7,0,1.3,0.6,1.3,1.4v1.6c-1,0.4-1.8,1.4-1.8,2.6c0,1.5,1.2,2.8,2.8,2.8c0.6,0,1-0.4,1-1
		s-0.4-1-1-1c-0.4,0-0.8-0.4-0.8-0.8s0.3-0.8,0.8-0.8c0.6,0,1-0.5,1-1.1V9.3c0-1.9-1.5-3.4-3.3-3.4s-3.3,1.5-3.3,3.4
		c0,0.6,0.4,1,1,1s1-0.4,1-1C23.4,8.5,24,7.9,24.7,7.9z"/>
</g>
</svg>
