<?xml version="1.0" encoding="utf-8"?>
<!-- Generator: Adobe Illustrator 24.2.3, SVG Export Plug-In . SVG Version: 6.00 Build 0)  -->
<svg version="1.1" id="Layer_1" xmlns="http://www.w3.org/2000/svg" xmlns:xlink="http://www.w3.org/1999/xlink" x="0px" y="0px"
	 viewBox="0 0 52 48.2" style="enable-background:new 0 0 52 48.2;" xml:space="preserve">
<style type="text/css">
	.st0{fill:#FFFFFF;}
</style>
<path class="st0" d="M49,1.5H3c-0.5,0-1,0.4-1,1v43c0,0.6,0.5,1,1,1h46c0.6,0,1-0.4,1-1v-43C50,2,49.6,1.5,49,1.5z M13.5,37.7
	c-0.4,0.9-0.6,1.9-0.6,2.9v4H4v-41h9.5V37.7z M36.5,35.1c-1.6-1.4-3.8-2.2-6.2-2.2h-8.7c-2.3,0-4.5,0.8-6.1,2.2V3.5H25v11.9
	c0,0,0,0.1,0,0.1c-3,0.5-5.3,3-5.3,6.2c0,3.4,2.8,8.2,6.2,8.2c3.5,0,6.2-4.8,6.2-8.2c0-3.1-2.3-5.7-5.3-6.2c0,0,0-0.1,0-0.1V3.5h9.5
	V35.1z M48,44.5h-8.9v-4c0-1-0.2-1.9-0.6-2.8V3.5H48V44.5z"/>
</svg>
