<?xml version="1.0" encoding="UTF-8" standalone="no"?>
<svg width="60px" height="60px" viewBox="0 0 60 60" version="1.1" xmlns="http://www.w3.org/2000/svg" xmlns:xlink="http://www.w3.org/1999/xlink" xmlns:sketch="http://www.bohemiancoding.com/sketch/ns">
    <!-- Generator: Sketch 3.2.2 (9983) - http://www.bohemiancoding.com/sketch -->
    <title>Businessman</title>
    <desc>Created with Sketch.</desc>
    <defs></defs>
    <g id="stroked" stroke="none" stroke-width="1" fill="none" fill-rule="evenodd" sketch:type="MSPage">
        <g id="Marketing" sketch:type="MSLayerGroup" transform="translate(-118.000000, -950.000000)" stroke="#ffffff" stroke-width="2" stroke-linejoin="round">
            <g id="Businessman" transform="translate(122.000000, 954.000000)" sketch:type="MSShapeGroup">
                <path d="M2.45812719,14.9511894 C3.73271011,19.6162482 7.52273871,23 12,23 C16.4772613,23 20.2672899,19.6162482 21.5418728,14.9511894 L21.5418728,14.9511894 C22.9400728,14.6961217 24,13.4718405 24,12 C24,10.6138405 23.059885,9.44725654 21.7824737,9.10306679 C20.8236354,3.90228408 16.8080904,0 12,0 C7.19190956,0 3.17636458,3.90228408 2.21752633,9.10306679 C0.94011496,9.44725654 0,10.6138405 0,12 C0,13.4718405 1.05992716,14.6961217 2.45812719,14.9511894 Z" id="Oval-1403" stroke-linecap="round"></path>
                <path d="M31.4581272,33.9511894 C32.7327101,38.6162482 36.5227387,42 41,42 C45.4772613,42 49.2672899,38.6162482 50.5418728,33.9511894 L50.5418728,33.9511894 C51.9400728,33.6961217 53,32.4718405 53,31 C53,29.6138405 52.059885,28.4472565 50.7824737,28.1030668 C49.8236354,22.9022841 45.8080904,19 41,19 C36.1919096,19 32.1763646,22.9022841 31.2175263,28.1030668 C29.940115,28.4472565 29,29.6138405 29,31 C29,32.4718405 30.0599272,33.6961217 31.4581272,33.9511894 Z" id="Oval-1403" stroke-linecap="round"></path>
                <path d="M23,34 C23,27.9248678 18.0751322,23 12,23 C5.92486775,23 1,27.9248678 1,34 L23,34 Z" id="Oval-1402" stroke-linecap="round"></path>
                <path d="M52,53 C52,46.9248678 47.0751322,42 41,42 C34.9248678,42 30,46.9248678 30,53 L52,53 Z" id="Oval-1402" stroke-linecap="round"></path>
                <path d="M26,3 L41.0332966,3" id="Line" stroke-linecap="square"></path>
                <path d="M41,3 L41,14.0453606" id="Line" stroke-linecap="square"></path>
            </g>
        </g>
    </g>
</svg>